<svg width="187" height="55" viewBox="0 0 187 55" fill="none" xmlns="http://www.w3.org/2000/svg">
<path fill-rule="evenodd" clip-rule="evenodd" d="M11.8564 20.3145C10.7519 20.3145 9.85645 21.2099 9.85645 22.3145V29.8243H18.6343C18.6345 26.9964 20.927 24.704 23.755 24.704C26.5829 24.704 28.8755 26.9964 28.8757 29.8243H37.6545V22.3145C37.6545 21.2099 36.759 20.3145 35.6545 20.3145H11.8564Z" fill="white"/>
<rect x="9.85645" y="32.0195" width="8.77833" height="9.50985" fill="white"/>
<rect x="28.877" y="32.0195" width="8.77833" height="9.50985" fill="white"/>
<path fill-rule="evenodd" clip-rule="evenodd" d="M135.602 0C134.497 0 133.602 0.895432 133.602 2V8.03495H137.709C137.703 7.94068 137.7 7.84567 137.7 7.75C137.7 5.12665 139.827 3 142.45 3C145.074 3 147.2 5.12665 147.2 7.75C147.2 7.84567 147.197 7.94068 147.192 8.03495H151.242V2C151.242 0.89543 150.347 0 149.242 0H135.602Z" fill="white" />
<path d="M62.8933 24.2381V42.3857H59V19.7378H62.684L62.8933 24.2381ZM62.0979 30.2036L60.2978 30.1408C60.3117 28.5918 60.5141 27.1615 60.9048 25.8498C61.2955 24.5241 61.8746 23.3729 62.6421 22.3961C63.4096 21.4193 64.3655 20.6657 65.5097 20.1355C66.654 19.5912 67.9797 19.3191 69.4867 19.3191C70.5473 19.3191 71.5241 19.4726 72.4172 19.7796C73.3102 20.0727 74.0847 20.5401 74.7406 21.182C75.3964 21.8239 75.9058 22.6473 76.2686 23.652C76.6314 24.6567 76.8128 25.8707 76.8128 27.2941V42.3857H72.9404V27.4825C72.9404 26.2963 72.7381 25.3474 72.3334 24.6358C71.9427 23.9241 71.3845 23.4078 70.6589 23.0868C69.9333 22.7519 69.0821 22.5845 68.1052 22.5845C66.961 22.5845 66.0051 22.7868 65.2376 23.1915C64.4701 23.5962 63.8561 24.1543 63.3956 24.866C62.9351 25.5777 62.6002 26.394 62.3909 27.315C62.1956 28.222 62.0979 29.1849 62.0979 30.2036ZM76.7709 28.0685L74.1754 28.8639C74.1894 27.622 74.3917 26.4289 74.7824 25.2846C75.1871 24.1404 75.7662 23.1217 76.5198 22.2286C77.2872 21.3355 78.2292 20.6309 79.3455 20.1145C80.4619 19.5843 81.7387 19.3191 83.176 19.3191C84.39 19.3191 85.4645 19.4796 86.3995 19.8006C87.3484 20.1215 88.1438 20.6169 88.7857 21.2867C89.4415 21.9426 89.9369 22.7868 90.2718 23.8194C90.6067 24.8521 90.7742 26.08 90.7742 27.5034V42.3857H86.8809V27.4615C86.8809 26.1917 86.6786 25.2079 86.2739 24.5102C85.8832 23.7985 85.325 23.3031 84.5994 23.024C83.8877 22.731 83.0365 22.5845 82.0457 22.5845C81.1945 22.5845 80.4409 22.731 79.7851 23.024C79.1292 23.3171 78.578 23.7217 78.1315 24.2381C77.6849 24.7404 77.3431 25.3195 77.1058 25.9754C76.8826 26.6312 76.7709 27.329 76.7709 28.0685Z" fill="white"/>
<path d="M106.033 42.8044C104.456 42.8044 103.026 42.5392 101.742 42.009C100.472 41.4648 99.3771 40.7042 98.4561 39.7274C97.549 38.7506 96.8513 37.5924 96.3629 36.2528C95.8745 34.9132 95.6303 33.4479 95.6303 31.8571V30.978C95.6303 29.136 95.9024 27.4964 96.4466 26.0591C96.9909 24.6079 97.7304 23.3799 98.6654 22.3751C99.6003 21.3704 100.661 20.6099 101.847 20.0936C103.033 19.5773 104.261 19.3191 105.531 19.3191C107.15 19.3191 108.545 19.5982 109.717 20.1564C110.903 20.7146 111.873 21.496 112.627 22.5007C113.38 23.4915 113.938 24.6637 114.301 26.0172C114.664 27.3569 114.846 28.8221 114.846 30.4129V32.1502H97.9328V28.9895H110.973V28.6965C110.917 27.6918 110.708 26.715 110.345 25.7661C109.996 24.8172 109.438 24.0357 108.671 23.4217C107.903 22.8077 106.857 22.5007 105.531 22.5007C104.652 22.5007 103.842 22.6891 103.103 23.0659C102.363 23.4287 101.728 23.9729 101.198 24.6986C100.668 25.4242 100.256 26.3103 99.9632 27.3569C99.6701 28.4035 99.5236 29.6105 99.5236 30.978V31.8571C99.5236 32.9316 99.6701 33.9433 99.9632 34.8922C100.27 35.8272 100.71 36.6505 101.282 37.3622C101.868 38.0738 102.573 38.632 103.396 39.0367C104.233 39.4414 105.182 39.6437 106.243 39.6437C107.61 39.6437 108.768 39.3646 109.717 38.8064C110.666 38.2483 111.496 37.5017 112.208 36.5668L114.552 38.4297C114.064 39.1693 113.443 39.8739 112.69 40.5438C111.936 41.2136 111.008 41.7578 109.906 42.1764C108.817 42.5951 107.526 42.8044 106.033 42.8044Z" fill="white"/>
<path d="M133.642 37.9901V10.2348H137.535V42.3857H133.977L133.642 37.9901ZM118.404 31.3129V30.8734C118.404 29.143 118.613 27.5732 119.032 26.1638C119.464 24.7404 120.071 23.5194 120.853 22.5007C121.648 21.4821 122.59 20.7006 123.679 20.1564C124.781 19.5982 126.009 19.3191 127.363 19.3191C128.786 19.3191 130.028 19.5703 131.088 20.0727C132.163 20.5611 133.07 21.2797 133.81 22.2286C134.563 23.1636 135.156 24.2939 135.589 25.6195C136.021 26.9452 136.321 28.4453 136.489 30.1198V32.0455C136.335 33.7061 136.035 35.1992 135.589 36.5249C135.156 37.8506 134.563 38.9809 133.81 39.9158C133.07 40.8508 132.163 41.5694 131.088 42.0718C130.014 42.5602 128.758 42.8044 127.321 42.8044C125.995 42.8044 124.781 42.5183 123.679 41.9462C122.59 41.3741 121.648 40.5717 120.853 39.5391C120.071 38.5064 119.464 37.2924 119.032 35.8969C118.613 34.4876 118.404 32.9595 118.404 31.3129ZM122.297 30.8734V31.3129C122.297 32.4432 122.409 33.5038 122.632 34.4945C122.869 35.4853 123.232 36.3574 123.721 37.111C124.209 37.8645 124.83 38.4576 125.583 38.8902C126.337 39.3088 127.237 39.5181 128.284 39.5181C129.567 39.5181 130.621 39.246 131.444 38.7018C132.282 38.1576 132.951 37.4389 133.454 36.5458C133.956 35.6527 134.347 34.6829 134.626 33.6363V28.5918C134.458 27.8243 134.214 27.0848 133.893 26.3731C133.586 25.6475 133.182 25.0056 132.679 24.4474C132.191 23.8752 131.584 23.4217 130.858 23.0868C130.147 22.7519 129.302 22.5845 128.325 22.5845C127.265 22.5845 126.351 22.8077 125.583 23.2543C124.83 23.6869 124.209 24.2869 123.721 25.0544C123.232 25.8079 122.869 26.6871 122.632 27.6918C122.409 28.6825 122.297 29.7431 122.297 30.8734Z" fill="white"/>
<path d="M155.519 19.7378V22.7101H143.274V19.7378H155.519ZM147.418 10.1108H151.291V36.7761C151.291 37.5436 151.409 38.1227 151.646 38.5134C151.884 38.9041 152.191 39.1623 152.567 39.2879C152.944 39.4135 153.349 39.4762 153.782 39.4762C154.102 39.4762 154.437 39.4483 154.786 39.3925C155.149 39.3227 155.421 39.2669 155.603 39.2251L155.624 42.3857C155.317 42.4834 154.912 42.5741 154.409 42.6578C153.921 42.7555 153.328 42.8044 152.63 42.8044C151.681 42.8044 150.809 42.616 150.014 42.2392C149.218 41.8624 148.584 41.2345 148.109 40.3554C147.649 39.4623 147.418 38.2622 147.418 36.7551V10.1108Z" fill="white"/>
<path d="M169.459 42.8044C167.882 42.8044 166.452 42.5392 165.168 42.009C163.898 41.4648 162.803 40.7042 161.882 39.7274C160.975 38.7506 160.277 37.5924 159.789 36.2528C159.3 34.9132 159.056 33.4479 159.056 31.8571V30.978C159.056 29.136 159.328 27.4964 159.873 26.0591C160.417 24.6079 161.156 23.3799 162.091 22.3751C163.026 21.3704 164.087 20.6099 165.273 20.0936C166.459 19.5773 167.687 19.3191 168.957 19.3191C170.576 19.3191 171.971 19.5982 173.143 20.1564C174.329 20.7146 175.299 21.496 176.053 22.5007C176.806 23.4915 177.364 24.6637 177.727 26.0172C178.09 27.3569 178.271 28.8221 178.271 30.4129V32.1502H161.359V28.9895H174.399V28.6965C174.343 27.6918 174.134 26.715 173.771 25.7661C173.422 24.8172 172.864 24.0357 172.097 23.4217C171.329 22.8077 170.283 22.5007 168.957 22.5007C168.078 22.5007 167.268 22.6891 166.529 23.0659C165.789 23.4287 165.154 23.9729 164.624 24.6986C164.094 25.4242 163.682 26.3103 163.389 27.3569C163.096 28.4035 162.95 29.6105 162.95 30.978V31.8571C162.95 32.9316 163.096 33.9433 163.389 34.8922C163.696 35.8272 164.136 36.6505 164.708 37.3622C165.294 38.0738 165.999 38.632 166.822 39.0367C167.659 39.4414 168.608 39.6437 169.669 39.6437C171.036 39.6437 172.194 39.3646 173.143 38.8064C174.092 38.2483 174.922 37.5017 175.634 36.5668L177.978 38.4297C177.49 39.1693 176.869 39.8739 176.116 40.5438C175.362 41.2136 174.434 41.7578 173.332 42.1764C172.243 42.5951 170.952 42.8044 169.459 42.8044Z" fill="white"/>
<path d="M187 10.2348V42.3857H183.107V10.2348H187Z" fill="white"/>
</svg>
